<svg width="1275" height="415" viewBox="0 0 1275 415" fill="none" xmlns="http://www.w3.org/2000/svg">
<path d="M176.797 117.565C210.769 117.565 237.809 128.658 257.915 150.844C278.368 172.684 288.595 202.843 288.595 241.323V410.839H200.196V253.282C200.196 233.869 195.17 218.79 185.117 208.043C175.063 197.297 161.544 191.924 144.557 191.924C127.571 191.924 114.051 197.297 103.998 208.043C93.9449 218.79 88.9184 233.869 88.9184 253.282V410.839H0V120.685H88.9184V159.164C97.9315 146.338 110.065 136.285 125.318 129.005C140.571 121.378 157.73 117.565 176.797 117.565Z" fill="#FF4C4C"/>
<path d="M513.141 117.565C546.421 117.565 573.113 128.658 593.22 150.844C613.326 172.684 623.379 202.843 623.379 241.323V410.839H534.981V253.282C534.981 233.869 529.954 218.79 519.901 208.043C509.848 197.297 496.328 191.924 479.342 191.924C462.355 191.924 448.836 197.297 438.783 208.043C428.729 218.79 423.703 233.869 423.703 253.282V410.839H334.784V26.0466H423.703V159.684C432.716 146.858 445.022 136.631 460.622 129.005C476.222 121.378 493.728 117.565 513.141 117.565Z" fill="#FF4C4C"/>
<path fill-rule="evenodd" clip-rule="evenodd" d="M799.607 156.203L809.351 119.838C800.193 117.629 790.345 116.525 779.807 116.525C755.887 116.525 734.221 122.591 714.808 134.725C695.395 146.858 679.969 164.191 668.529 186.724C657.436 209.257 651.889 235.429 651.889 265.242C651.889 295.055 657.436 321.401 668.529 344.281C679.969 366.814 695.395 384.32 714.808 396.8C734.221 408.933 755.714 414.999 779.287 414.999C799.74 414.999 817.593 410.839 832.846 402.52C848.446 394.2 860.579 383.28 869.245 369.76V410.839H958.163V149.809L921.54 213.243L888.607 156.203L878.479 194.004L853.561 150.844L832.846 186.724V137.012L799.607 156.203ZM850.525 213.243C863.005 226.07 869.245 243.576 869.245 265.762C869.245 287.948 863.005 305.455 850.525 318.281C838.392 331.108 823.486 337.521 805.806 337.521C788.127 337.521 773.047 331.108 760.567 318.281C748.434 305.108 742.368 287.428 742.368 265.242C742.368 243.056 748.434 225.723 760.567 213.243C773.047 200.417 788.127 194.004 805.806 194.004C823.486 194.004 838.392 200.417 850.525 213.243Z" fill="#FF4C4C"/>
<path fill-rule="evenodd" clip-rule="evenodd" d="M1031.87 215.305L1007.24 187.047C995.221 209.508 989.213 235.747 989.213 265.762C989.213 295.922 995.279 322.268 1007.41 344.801C1019.89 367.334 1037.05 384.667 1058.89 396.8C1081.08 408.933 1106.38 414.999 1134.81 414.999C1170.86 414.999 1201.2 405.293 1225.81 385.88C1250.42 366.467 1266.54 339.774 1274.17 305.801H1179.53C1171.56 327.988 1156.13 339.081 1133.25 339.081C1116.96 339.081 1103.96 332.841 1094.25 320.361C1084.54 307.535 1079.69 289.335 1079.69 265.762C1079.69 242.189 1084.54 224.163 1094.25 211.683C1103.96 198.857 1116.96 192.444 1133.25 192.444C1156.13 192.444 1171.56 203.537 1179.53 225.723H1274.17C1266.54 191.057 1250.42 164.191 1225.81 145.124C1201.54 126.058 1171.21 116.525 1134.81 116.525C1131.35 116.525 1127.93 116.615 1124.56 116.795L1139.57 147.449L1080.4 127.168L1075.48 198.918L1036.09 153.726L1031.87 215.305Z" fill="#FF4C4C"/>
<path d="M1200.98 51.4066L1175.69 33.443L1245.85 18.3989L1200.98 51.4066Z" fill="#FF4C4C"/>
<path d="M1229.37 70.2419L1202.88 54.0106L1233.2 35.4022L1259.87 38.9475L1229.37 70.2419Z" fill="#FF4C4C"/>
<path d="M631.481 75.38L692.369 85.0273L645.214 36.7977L631.481 75.38Z" fill="#FF4C4C"/>
<path d="M670.608 8.40508L653.774 28.7331L706.696 77.8293L710.213 38.5663L670.608 8.40508Z" fill="#FF4C4C"/>
</svg>
